<svg xmlns="http://www.w3.org/2000/svg" width="760" height="84" viewBox="0 0 760 84" role="img" aria-label="インストールする">
<title>インストールする</title>
<defs><linearGradient id="g" x1="0" y1="20.2" x2="0" y2="62" gradientUnits="userSpaceOnUse">
<stop offset="0" stop-color="#ff6f9f"/><stop offset="1" stop-color="#ffa6c6"/></linearGradient></defs>
<path d="M30.0 42.0L30.0 22.0M30.0 31.0L35.4 25.6M30.0 31.0L24.6 25.6M30.0 42.0L12.7 32.0M20.5 36.5L18.5 29.2M20.5 36.5L13.1 38.5M30.0 42.0L12.7 52.0M20.5 47.5L13.1 45.5M20.5 47.5L18.5 54.8M30.0 42.0L30.0 62.0M30.0 53.0L24.6 58.4M30.0 53.0L35.4 58.4M30.0 42.0L47.3 52.0M39.5 47.5L41.5 54.8M39.5 47.5L46.9 45.5M30.0 42.0L47.3 32.0M39.5 36.5L46.9 38.5M39.5 36.5L41.5 29.2" stroke="#7391ee" stroke-width="9" stroke-linecap="round" fill="none"/><path d="M30.0 42.0L30.0 22.0M30.0 31.0L35.4 25.6M30.0 31.0L24.6 25.6M30.0 42.0L12.7 32.0M20.5 36.5L18.5 29.2M20.5 36.5L13.1 38.5M30.0 42.0L12.7 52.0M20.5 47.5L13.1 45.5M20.5 47.5L18.5 54.8M30.0 42.0L30.0 62.0M30.0 53.0L24.6 58.4M30.0 53.0L35.4 58.4M30.0 42.0L47.3 52.0M39.5 47.5L41.5 54.8M39.5 47.5L46.9 45.5M30.0 42.0L47.3 32.0M39.5 36.5L46.9 38.5M39.5 36.5L41.5 29.2" stroke="#ffffff" stroke-width="6" stroke-linecap="round" fill="none"/><path d="M30.0 42.0L30.0 22.0M30.0 31.0L35.4 25.6M30.0 31.0L24.6 25.6M30.0 42.0L12.7 32.0M20.5 36.5L18.5 29.2M20.5 36.5L13.1 38.5M30.0 42.0L12.7 52.0M20.5 47.5L13.1 45.5M20.5 47.5L18.5 54.8M30.0 42.0L30.0 62.0M30.0 53.0L24.6 58.4M30.0 53.0L35.4 58.4M30.0 42.0L47.3 52.0M39.5 47.5L41.5 54.8M39.5 47.5L46.9 45.5M30.0 42.0L47.3 32.0M39.5 36.5L46.9 38.5M39.5 36.5L41.5 29.2" stroke="#ff6f9f" stroke-width="3" stroke-linecap="round" fill="none"/>
<path d="M420.0 62 H736" stroke="#7391ee" stroke-width="9" stroke-linecap="round"/><path d="M420.0 62 H736" stroke="#ffffff" stroke-width="6" stroke-linecap="round"/><path d="M424.0 62 H732" stroke="#ff8ab4" stroke-width="3" stroke-linecap="round" stroke-dasharray="10 9"/>
<path d="M70.242 44.602 69.94800000000001 43.006Q69.78 42.04 70.368 41.263000000000005Q70.956 40.486000000000004 71.922 40.275999999999996Q79.524 38.89 86.643 35.593Q93.762 32.296 99.138 27.676Q99.894 27.046 100.86 27.088Q101.826 27.13 102.456 27.886L103.506 29.061999999999998Q104.178 29.817999999999998 104.094 30.805Q104.01 31.791999999999998 103.254 32.464Q98.928 36.202 93.426 39.226Q93.09 39.436 93.09 39.772V57.832Q93.09 58.798 92.376 59.491Q91.662 60.184 90.696 60.184H88.134Q87.168 60.184 86.475 59.491Q85.782 58.798 85.782 57.832V43.216Q85.782 43.09 85.67699999999999 43.006Q85.572 42.922 85.446 42.964Q79.272 45.4 73.014 46.534Q72.048 46.702 71.229 46.135Q70.41 45.568 70.242 44.602ZM115.434 33.178Q114.552 32.757999999999996 114.25800000000001 31.833999999999996Q113.964 30.909999999999997 114.426 30.069999999999997L115.392 28.18Q115.854 27.298 116.799 26.982999999999997Q117.744 26.668 118.668 27.087999999999997Q122.994 29.145999999999997 127.53 31.497999999999998Q128.412 31.918 128.685 32.884Q128.958 33.849999999999994 128.496 34.69L127.404 36.58Q126.94200000000001 37.42 125.997 37.714Q125.05199999999999 38.007999999999996 124.17 37.546Q119.802 35.278 115.434 33.178ZM145.25400000000002 31.119999999999997Q146.22 31.33 146.76600000000002 32.149Q147.312 32.968 147.102 33.934Q144.624 44.98 137.37900000000002 51.111999999999995Q130.13400000000001 57.244 117.618 58.798Q116.61 58.924 115.812 58.315Q115.014 57.706 114.846 56.698L114.552 54.766Q114.384 53.842 114.97200000000001 53.065Q115.56 52.288 116.526 52.162Q126.774 50.734 132.507 46.072Q138.24 41.41 140.59199999999998 32.506Q140.844 31.54 141.663 31.015Q142.482 30.49 143.448 30.7ZM155.796 57.664 155.04 56.278Q154.578 55.438 154.893 54.493Q155.208 53.548 156.048 53.086Q170.244 45.61 177.132 33.43Q177.174 33.346000000000004 177.111 33.241Q177.048 33.135999999999996 176.922 33.135999999999996H160.038Q159.072 33.135999999999996 158.358 32.422Q157.644 31.708 157.644 30.741999999999997V29.229999999999997Q157.644 28.264 158.358 27.549999999999997Q159.072 26.836 160.038 26.836H182.55Q183.51600000000002 26.836 184.23000000000002 27.549999999999997Q184.94400000000002 28.264 184.94400000000002 29.229999999999997V30.741999999999997Q184.94400000000002 33.178 183.894 35.236Q181.248 40.108000000000004 177.51 44.434Q177.258 44.686 177.51 44.938Q182.13 49.012 186.96 53.59Q187.674 54.262 187.674 55.248999999999995Q187.674 56.236 186.96 56.908L185.65800000000002 58.168Q184.94400000000002 58.882 183.957 58.882Q182.97 58.882 182.256 58.21Q177.804 53.884 173.016 49.6Q172.722 49.39 172.47 49.6Q166.464 55.06 159.114 58.714Q158.19 59.176 157.224 58.861000000000004Q156.258 58.546 155.796 57.664ZM203.34 60.394Q202.374 60.394 201.66 59.68Q200.946 58.966 200.946 58.0V27.759999999999998Q200.946 26.793999999999997 201.66 26.08Q202.374 25.366 203.34 25.366H205.734Q206.7 25.366 207.393 26.08Q208.086 26.793999999999997 208.086 27.759999999999998V36.58Q208.086 36.958 208.464 37.042Q218.334 39.477999999999994 228.414 43.006Q229.338 43.3 229.8 44.203Q230.262 45.106 229.926 46.072L229.25400000000002 47.962Q228.918 48.885999999999996 228.078 49.306Q227.238 49.726 226.314 49.432Q217.704 46.366 208.422 43.972Q208.086 43.888 208.086 44.266V58.0Q208.086 58.966 207.393 59.68Q206.7 60.394 205.734 60.394ZM239.88 46.282Q238.914 46.282 238.2 45.568Q237.486 44.854 237.486 43.888V41.872Q237.486 40.906 238.2 40.19199999999999Q238.914 39.477999999999994 239.88 39.477999999999994H270.12Q271.086 39.477999999999994 271.8 40.19199999999999Q272.514 40.906 272.514 41.872V43.888Q272.514 44.854 271.8 45.568Q271.086 46.282 270.12 46.282ZM298.806 59.68Q297.84 59.722 297.147 59.007999999999996Q296.454 58.294 296.454 57.328V28.389999999999997Q296.454 27.424 297.147 26.709999999999997Q297.84 25.995999999999995 298.806 25.995999999999995H301.074Q302.04 25.995999999999995 302.733 26.709999999999997Q303.426 27.424 303.426 28.389999999999997V52.204Q303.426 52.498 303.804 52.414Q306.618 51.406 308.172 48.949Q309.726 46.492 310.44 41.914Q310.608 40.948 311.36400000000003 40.339Q312.12 39.730000000000004 313.086 39.855999999999995L314.808 40.108000000000004Q315.774 40.233999999999995 316.404 41.032Q317.034 41.83 316.908 42.796Q315.69 51.238 311.259 55.312Q306.828 59.386 298.806 59.68ZM280.284 58.252 279.15 56.488Q278.646 55.69 278.877 54.766Q279.108 53.842 279.948 53.338Q281.712 52.246 282.678 51.07Q283.644 49.894 284.23199999999997 47.689Q284.82 45.484 284.988 42.628Q285.156 39.772 285.156 34.69V28.389999999999997Q285.156 27.424 285.87 26.709999999999997Q286.584 25.995999999999995 287.55 25.995999999999995H289.65Q290.616 25.995999999999995 291.33 26.709999999999997Q292.044 27.424 292.044 28.389999999999997V34.69Q292.044 42.544 291.267 47.143Q290.49 51.742 288.747 54.45099999999999Q287.004 57.16 283.728 59.092Q282.846 59.596000000000004 281.85900000000004 59.344Q280.872 59.092 280.284 58.252ZM339.44100000000003 45.358Q340.428 44.476 340.428 43.09Q340.428 41.704 339.44100000000003 40.822Q338.454 39.94 336.858 39.94Q335.262 39.94 334.275 40.822Q333.288 41.704 333.288 43.09Q333.288 44.476 334.275 45.358Q335.262 46.239999999999995 336.858 46.239999999999995Q338.454 46.239999999999995 339.44100000000003 45.358ZM323.04 33.22Q322.074 33.22 321.36 32.506Q320.646 31.791999999999998 320.646 30.825999999999997V30.195999999999998Q320.646 29.229999999999997 321.36 28.537Q322.074 27.843999999999998 323.04 27.843999999999998H339.462Q339.84 27.843999999999998 339.84 27.465999999999998V25.995999999999995Q339.84 25.03 340.554 24.337Q341.26800000000003 23.644 342.234 23.644H343.914Q344.88 23.644 345.573 24.357999999999997Q346.266 25.071999999999996 346.266 26.037999999999997V27.465999999999998Q346.266 27.843999999999998 346.644 27.843999999999998H354.96Q355.926 27.843999999999998 356.64 28.537Q357.354 29.229999999999997 357.354 30.195999999999998V30.825999999999997Q357.354 31.791999999999998 356.64 32.506Q355.926 33.22 354.96 33.22H346.644Q346.266 33.22 346.266 33.598V40.822Q346.266 41.032 346.434 41.452Q347.568 44.013999999999996 347.568 46.954Q347.568 53.002 344.27099999999996 56.215Q340.974 59.428 333.33 60.52Q332.322 60.688 331.524 60.079Q330.726 59.47 330.516 58.462L330.348 57.328Q330.18 56.403999999999996 330.747 55.626999999999995Q331.314 54.85 332.28 54.724Q336.81600000000003 54.136 338.538 53.191Q340.26 52.246 340.848 50.44Q340.848 50.397999999999996 340.89 50.334999999999994Q340.932 50.272 340.932 50.23Q340.932 50.146 340.89 50.146H340.806Q338.664 51.406 335.934 51.406Q331.944 51.406 329.44500000000005 49.096000000000004Q326.946 46.786 326.946 43.09Q326.946 39.394 329.487 37.084Q332.028 34.774 336.186 34.774Q337.992 34.774 339.714 35.446Q339.756 35.446 339.756 35.467Q339.756 35.488 339.798 35.488Q339.84 35.488 339.84 35.403999999999996V33.598Q339.84 33.22 339.462 33.22ZM381.504 55.018Q381.924 53.926 381.924 53.086Q381.924 51.994 381.105 51.469Q380.286 50.944 378.01800000000003 50.944Q376.212 50.944 375.30899999999997 51.511Q374.406 52.078 374.406 52.96Q374.406 55.396 380.916 55.396Q380.958 55.396 380.958 55.396L381.04200000000003 55.354Q381.378 55.354 381.504 55.018ZM365.376 45.064 365.166 44.686Q364.746 43.804 365.03999999999996 42.817Q365.334 41.83 366.174 41.326L382.176 31.918L382.218 31.875999999999998H382.176H369.282Q368.316 31.875999999999998 367.623 31.162Q366.93 30.447999999999997 366.93 29.482V28.683999999999997Q366.93 27.717999999999996 367.623 27.003999999999998Q368.316 26.29 369.282 26.29H391.962Q392.928 26.29 393.642 27.003999999999998Q394.356 27.717999999999996 394.356 28.683999999999997V29.65Q394.356 32.086 392.298 33.135999999999996L381.84 38.68V38.721999999999994H381.882Q383.982 38.343999999999994 385.872 38.343999999999994Q391.584 38.343999999999994 394.71299999999997 40.94799999999999Q397.842 43.552 397.842 48.004Q397.842 54.01 393.432 57.328Q389.022 60.646 380.916 60.646Q368.19 60.646 368.19 52.96Q368.19 50.062 370.94100000000003 48.087999999999994Q373.692 46.114 378.396 46.114Q383.226 46.114 385.389 47.68899999999999Q387.552 49.263999999999996 387.552 52.414Q387.552 53.338 387.468 53.8Q387.468 53.884 387.552 53.947Q387.636 54.01 387.72 53.968Q390.828 52.204 390.828 48.466Q390.828 43.257999999999996 382.89 43.257999999999996Q378.9 43.257999999999996 375.666 43.92999999999999Q372.432 44.602 368.61 46.239999999999995Q367.686 46.617999999999995 366.741 46.282Q365.796 45.946 365.376 45.064Z" fill="#7391ee" stroke="#7391ee" stroke-width="10" stroke-linejoin="round" transform="translate(0 2.5)"/>
<path d="M70.242 44.602 69.94800000000001 43.006Q69.78 42.04 70.368 41.263000000000005Q70.956 40.486000000000004 71.922 40.275999999999996Q79.524 38.89 86.643 35.593Q93.762 32.296 99.138 27.676Q99.894 27.046 100.86 27.088Q101.826 27.13 102.456 27.886L103.506 29.061999999999998Q104.178 29.817999999999998 104.094 30.805Q104.01 31.791999999999998 103.254 32.464Q98.928 36.202 93.426 39.226Q93.09 39.436 93.09 39.772V57.832Q93.09 58.798 92.376 59.491Q91.662 60.184 90.696 60.184H88.134Q87.168 60.184 86.475 59.491Q85.782 58.798 85.782 57.832V43.216Q85.782 43.09 85.67699999999999 43.006Q85.572 42.922 85.446 42.964Q79.272 45.4 73.014 46.534Q72.048 46.702 71.229 46.135Q70.41 45.568 70.242 44.602ZM115.434 33.178Q114.552 32.757999999999996 114.25800000000001 31.833999999999996Q113.964 30.909999999999997 114.426 30.069999999999997L115.392 28.18Q115.854 27.298 116.799 26.982999999999997Q117.744 26.668 118.668 27.087999999999997Q122.994 29.145999999999997 127.53 31.497999999999998Q128.412 31.918 128.685 32.884Q128.958 33.849999999999994 128.496 34.69L127.404 36.58Q126.94200000000001 37.42 125.997 37.714Q125.05199999999999 38.007999999999996 124.17 37.546Q119.802 35.278 115.434 33.178ZM145.25400000000002 31.119999999999997Q146.22 31.33 146.76600000000002 32.149Q147.312 32.968 147.102 33.934Q144.624 44.98 137.37900000000002 51.111999999999995Q130.13400000000001 57.244 117.618 58.798Q116.61 58.924 115.812 58.315Q115.014 57.706 114.846 56.698L114.552 54.766Q114.384 53.842 114.97200000000001 53.065Q115.56 52.288 116.526 52.162Q126.774 50.734 132.507 46.072Q138.24 41.41 140.59199999999998 32.506Q140.844 31.54 141.663 31.015Q142.482 30.49 143.448 30.7ZM155.796 57.664 155.04 56.278Q154.578 55.438 154.893 54.493Q155.208 53.548 156.048 53.086Q170.244 45.61 177.132 33.43Q177.174 33.346000000000004 177.111 33.241Q177.048 33.135999999999996 176.922 33.135999999999996H160.038Q159.072 33.135999999999996 158.358 32.422Q157.644 31.708 157.644 30.741999999999997V29.229999999999997Q157.644 28.264 158.358 27.549999999999997Q159.072 26.836 160.038 26.836H182.55Q183.51600000000002 26.836 184.23000000000002 27.549999999999997Q184.94400000000002 28.264 184.94400000000002 29.229999999999997V30.741999999999997Q184.94400000000002 33.178 183.894 35.236Q181.248 40.108000000000004 177.51 44.434Q177.258 44.686 177.51 44.938Q182.13 49.012 186.96 53.59Q187.674 54.262 187.674 55.248999999999995Q187.674 56.236 186.96 56.908L185.65800000000002 58.168Q184.94400000000002 58.882 183.957 58.882Q182.97 58.882 182.256 58.21Q177.804 53.884 173.016 49.6Q172.722 49.39 172.47 49.6Q166.464 55.06 159.114 58.714Q158.19 59.176 157.224 58.861000000000004Q156.258 58.546 155.796 57.664ZM203.34 60.394Q202.374 60.394 201.66 59.68Q200.946 58.966 200.946 58.0V27.759999999999998Q200.946 26.793999999999997 201.66 26.08Q202.374 25.366 203.34 25.366H205.734Q206.7 25.366 207.393 26.08Q208.086 26.793999999999997 208.086 27.759999999999998V36.58Q208.086 36.958 208.464 37.042Q218.334 39.477999999999994 228.414 43.006Q229.338 43.3 229.8 44.203Q230.262 45.106 229.926 46.072L229.25400000000002 47.962Q228.918 48.885999999999996 228.078 49.306Q227.238 49.726 226.314 49.432Q217.704 46.366 208.422 43.972Q208.086 43.888 208.086 44.266V58.0Q208.086 58.966 207.393 59.68Q206.7 60.394 205.734 60.394ZM239.88 46.282Q238.914 46.282 238.2 45.568Q237.486 44.854 237.486 43.888V41.872Q237.486 40.906 238.2 40.19199999999999Q238.914 39.477999999999994 239.88 39.477999999999994H270.12Q271.086 39.477999999999994 271.8 40.19199999999999Q272.514 40.906 272.514 41.872V43.888Q272.514 44.854 271.8 45.568Q271.086 46.282 270.12 46.282ZM298.806 59.68Q297.84 59.722 297.147 59.007999999999996Q296.454 58.294 296.454 57.328V28.389999999999997Q296.454 27.424 297.147 26.709999999999997Q297.84 25.995999999999995 298.806 25.995999999999995H301.074Q302.04 25.995999999999995 302.733 26.709999999999997Q303.426 27.424 303.426 28.389999999999997V52.204Q303.426 52.498 303.804 52.414Q306.618 51.406 308.172 48.949Q309.726 46.492 310.44 41.914Q310.608 40.948 311.36400000000003 40.339Q312.12 39.730000000000004 313.086 39.855999999999995L314.808 40.108000000000004Q315.774 40.233999999999995 316.404 41.032Q317.034 41.83 316.908 42.796Q315.69 51.238 311.259 55.312Q306.828 59.386 298.806 59.68ZM280.284 58.252 279.15 56.488Q278.646 55.69 278.877 54.766Q279.108 53.842 279.948 53.338Q281.712 52.246 282.678 51.07Q283.644 49.894 284.23199999999997 47.689Q284.82 45.484 284.988 42.628Q285.156 39.772 285.156 34.69V28.389999999999997Q285.156 27.424 285.87 26.709999999999997Q286.584 25.995999999999995 287.55 25.995999999999995H289.65Q290.616 25.995999999999995 291.33 26.709999999999997Q292.044 27.424 292.044 28.389999999999997V34.69Q292.044 42.544 291.267 47.143Q290.49 51.742 288.747 54.45099999999999Q287.004 57.16 283.728 59.092Q282.846 59.596000000000004 281.85900000000004 59.344Q280.872 59.092 280.284 58.252ZM339.44100000000003 45.358Q340.428 44.476 340.428 43.09Q340.428 41.704 339.44100000000003 40.822Q338.454 39.94 336.858 39.94Q335.262 39.94 334.275 40.822Q333.288 41.704 333.288 43.09Q333.288 44.476 334.275 45.358Q335.262 46.239999999999995 336.858 46.239999999999995Q338.454 46.239999999999995 339.44100000000003 45.358ZM323.04 33.22Q322.074 33.22 321.36 32.506Q320.646 31.791999999999998 320.646 30.825999999999997V30.195999999999998Q320.646 29.229999999999997 321.36 28.537Q322.074 27.843999999999998 323.04 27.843999999999998H339.462Q339.84 27.843999999999998 339.84 27.465999999999998V25.995999999999995Q339.84 25.03 340.554 24.337Q341.26800000000003 23.644 342.234 23.644H343.914Q344.88 23.644 345.573 24.357999999999997Q346.266 25.071999999999996 346.266 26.037999999999997V27.465999999999998Q346.266 27.843999999999998 346.644 27.843999999999998H354.96Q355.926 27.843999999999998 356.64 28.537Q357.354 29.229999999999997 357.354 30.195999999999998V30.825999999999997Q357.354 31.791999999999998 356.64 32.506Q355.926 33.22 354.96 33.22H346.644Q346.266 33.22 346.266 33.598V40.822Q346.266 41.032 346.434 41.452Q347.568 44.013999999999996 347.568 46.954Q347.568 53.002 344.27099999999996 56.215Q340.974 59.428 333.33 60.52Q332.322 60.688 331.524 60.079Q330.726 59.47 330.516 58.462L330.348 57.328Q330.18 56.403999999999996 330.747 55.626999999999995Q331.314 54.85 332.28 54.724Q336.81600000000003 54.136 338.538 53.191Q340.26 52.246 340.848 50.44Q340.848 50.397999999999996 340.89 50.334999999999994Q340.932 50.272 340.932 50.23Q340.932 50.146 340.89 50.146H340.806Q338.664 51.406 335.934 51.406Q331.944 51.406 329.44500000000005 49.096000000000004Q326.946 46.786 326.946 43.09Q326.946 39.394 329.487 37.084Q332.028 34.774 336.186 34.774Q337.992 34.774 339.714 35.446Q339.756 35.446 339.756 35.467Q339.756 35.488 339.798 35.488Q339.84 35.488 339.84 35.403999999999996V33.598Q339.84 33.22 339.462 33.22ZM381.504 55.018Q381.924 53.926 381.924 53.086Q381.924 51.994 381.105 51.469Q380.286 50.944 378.01800000000003 50.944Q376.212 50.944 375.30899999999997 51.511Q374.406 52.078 374.406 52.96Q374.406 55.396 380.916 55.396Q380.958 55.396 380.958 55.396L381.04200000000003 55.354Q381.378 55.354 381.504 55.018ZM365.376 45.064 365.166 44.686Q364.746 43.804 365.03999999999996 42.817Q365.334 41.83 366.174 41.326L382.176 31.918L382.218 31.875999999999998H382.176H369.282Q368.316 31.875999999999998 367.623 31.162Q366.93 30.447999999999997 366.93 29.482V28.683999999999997Q366.93 27.717999999999996 367.623 27.003999999999998Q368.316 26.29 369.282 26.29H391.962Q392.928 26.29 393.642 27.003999999999998Q394.356 27.717999999999996 394.356 28.683999999999997V29.65Q394.356 32.086 392.298 33.135999999999996L381.84 38.68V38.721999999999994H381.882Q383.982 38.343999999999994 385.872 38.343999999999994Q391.584 38.343999999999994 394.71299999999997 40.94799999999999Q397.842 43.552 397.842 48.004Q397.842 54.01 393.432 57.328Q389.022 60.646 380.916 60.646Q368.19 60.646 368.19 52.96Q368.19 50.062 370.94100000000003 48.087999999999994Q373.692 46.114 378.396 46.114Q383.226 46.114 385.389 47.68899999999999Q387.552 49.263999999999996 387.552 52.414Q387.552 53.338 387.468 53.8Q387.468 53.884 387.552 53.947Q387.636 54.01 387.72 53.968Q390.828 52.204 390.828 48.466Q390.828 43.257999999999996 382.89 43.257999999999996Q378.9 43.257999999999996 375.666 43.92999999999999Q372.432 44.602 368.61 46.239999999999995Q367.686 46.617999999999995 366.741 46.282Q365.796 45.946 365.376 45.064Z" fill="#7391ee" stroke="#7391ee" stroke-width="10" stroke-linejoin="round"/>
<path d="M70.242 44.602 69.94800000000001 43.006Q69.78 42.04 70.368 41.263000000000005Q70.956 40.486000000000004 71.922 40.275999999999996Q79.524 38.89 86.643 35.593Q93.762 32.296 99.138 27.676Q99.894 27.046 100.86 27.088Q101.826 27.13 102.456 27.886L103.506 29.061999999999998Q104.178 29.817999999999998 104.094 30.805Q104.01 31.791999999999998 103.254 32.464Q98.928 36.202 93.426 39.226Q93.09 39.436 93.09 39.772V57.832Q93.09 58.798 92.376 59.491Q91.662 60.184 90.696 60.184H88.134Q87.168 60.184 86.475 59.491Q85.782 58.798 85.782 57.832V43.216Q85.782 43.09 85.67699999999999 43.006Q85.572 42.922 85.446 42.964Q79.272 45.4 73.014 46.534Q72.048 46.702 71.229 46.135Q70.41 45.568 70.242 44.602ZM115.434 33.178Q114.552 32.757999999999996 114.25800000000001 31.833999999999996Q113.964 30.909999999999997 114.426 30.069999999999997L115.392 28.18Q115.854 27.298 116.799 26.982999999999997Q117.744 26.668 118.668 27.087999999999997Q122.994 29.145999999999997 127.53 31.497999999999998Q128.412 31.918 128.685 32.884Q128.958 33.849999999999994 128.496 34.69L127.404 36.58Q126.94200000000001 37.42 125.997 37.714Q125.05199999999999 38.007999999999996 124.17 37.546Q119.802 35.278 115.434 33.178ZM145.25400000000002 31.119999999999997Q146.22 31.33 146.76600000000002 32.149Q147.312 32.968 147.102 33.934Q144.624 44.98 137.37900000000002 51.111999999999995Q130.13400000000001 57.244 117.618 58.798Q116.61 58.924 115.812 58.315Q115.014 57.706 114.846 56.698L114.552 54.766Q114.384 53.842 114.97200000000001 53.065Q115.56 52.288 116.526 52.162Q126.774 50.734 132.507 46.072Q138.24 41.41 140.59199999999998 32.506Q140.844 31.54 141.663 31.015Q142.482 30.49 143.448 30.7ZM155.796 57.664 155.04 56.278Q154.578 55.438 154.893 54.493Q155.208 53.548 156.048 53.086Q170.244 45.61 177.132 33.43Q177.174 33.346000000000004 177.111 33.241Q177.048 33.135999999999996 176.922 33.135999999999996H160.038Q159.072 33.135999999999996 158.358 32.422Q157.644 31.708 157.644 30.741999999999997V29.229999999999997Q157.644 28.264 158.358 27.549999999999997Q159.072 26.836 160.038 26.836H182.55Q183.51600000000002 26.836 184.23000000000002 27.549999999999997Q184.94400000000002 28.264 184.94400000000002 29.229999999999997V30.741999999999997Q184.94400000000002 33.178 183.894 35.236Q181.248 40.108000000000004 177.51 44.434Q177.258 44.686 177.51 44.938Q182.13 49.012 186.96 53.59Q187.674 54.262 187.674 55.248999999999995Q187.674 56.236 186.96 56.908L185.65800000000002 58.168Q184.94400000000002 58.882 183.957 58.882Q182.97 58.882 182.256 58.21Q177.804 53.884 173.016 49.6Q172.722 49.39 172.47 49.6Q166.464 55.06 159.114 58.714Q158.19 59.176 157.224 58.861000000000004Q156.258 58.546 155.796 57.664ZM203.34 60.394Q202.374 60.394 201.66 59.68Q200.946 58.966 200.946 58.0V27.759999999999998Q200.946 26.793999999999997 201.66 26.08Q202.374 25.366 203.34 25.366H205.734Q206.7 25.366 207.393 26.08Q208.086 26.793999999999997 208.086 27.759999999999998V36.58Q208.086 36.958 208.464 37.042Q218.334 39.477999999999994 228.414 43.006Q229.338 43.3 229.8 44.203Q230.262 45.106 229.926 46.072L229.25400000000002 47.962Q228.918 48.885999999999996 228.078 49.306Q227.238 49.726 226.314 49.432Q217.704 46.366 208.422 43.972Q208.086 43.888 208.086 44.266V58.0Q208.086 58.966 207.393 59.68Q206.7 60.394 205.734 60.394ZM239.88 46.282Q238.914 46.282 238.2 45.568Q237.486 44.854 237.486 43.888V41.872Q237.486 40.906 238.2 40.19199999999999Q238.914 39.477999999999994 239.88 39.477999999999994H270.12Q271.086 39.477999999999994 271.8 40.19199999999999Q272.514 40.906 272.514 41.872V43.888Q272.514 44.854 271.8 45.568Q271.086 46.282 270.12 46.282ZM298.806 59.68Q297.84 59.722 297.147 59.007999999999996Q296.454 58.294 296.454 57.328V28.389999999999997Q296.454 27.424 297.147 26.709999999999997Q297.84 25.995999999999995 298.806 25.995999999999995H301.074Q302.04 25.995999999999995 302.733 26.709999999999997Q303.426 27.424 303.426 28.389999999999997V52.204Q303.426 52.498 303.804 52.414Q306.618 51.406 308.172 48.949Q309.726 46.492 310.44 41.914Q310.608 40.948 311.36400000000003 40.339Q312.12 39.730000000000004 313.086 39.855999999999995L314.808 40.108000000000004Q315.774 40.233999999999995 316.404 41.032Q317.034 41.83 316.908 42.796Q315.69 51.238 311.259 55.312Q306.828 59.386 298.806 59.68ZM280.284 58.252 279.15 56.488Q278.646 55.69 278.877 54.766Q279.108 53.842 279.948 53.338Q281.712 52.246 282.678 51.07Q283.644 49.894 284.23199999999997 47.689Q284.82 45.484 284.988 42.628Q285.156 39.772 285.156 34.69V28.389999999999997Q285.156 27.424 285.87 26.709999999999997Q286.584 25.995999999999995 287.55 25.995999999999995H289.65Q290.616 25.995999999999995 291.33 26.709999999999997Q292.044 27.424 292.044 28.389999999999997V34.69Q292.044 42.544 291.267 47.143Q290.49 51.742 288.747 54.45099999999999Q287.004 57.16 283.728 59.092Q282.846 59.596000000000004 281.85900000000004 59.344Q280.872 59.092 280.284 58.252ZM339.44100000000003 45.358Q340.428 44.476 340.428 43.09Q340.428 41.704 339.44100000000003 40.822Q338.454 39.94 336.858 39.94Q335.262 39.94 334.275 40.822Q333.288 41.704 333.288 43.09Q333.288 44.476 334.275 45.358Q335.262 46.239999999999995 336.858 46.239999999999995Q338.454 46.239999999999995 339.44100000000003 45.358ZM323.04 33.22Q322.074 33.22 321.36 32.506Q320.646 31.791999999999998 320.646 30.825999999999997V30.195999999999998Q320.646 29.229999999999997 321.36 28.537Q322.074 27.843999999999998 323.04 27.843999999999998H339.462Q339.84 27.843999999999998 339.84 27.465999999999998V25.995999999999995Q339.84 25.03 340.554 24.337Q341.26800000000003 23.644 342.234 23.644H343.914Q344.88 23.644 345.573 24.357999999999997Q346.266 25.071999999999996 346.266 26.037999999999997V27.465999999999998Q346.266 27.843999999999998 346.644 27.843999999999998H354.96Q355.926 27.843999999999998 356.64 28.537Q357.354 29.229999999999997 357.354 30.195999999999998V30.825999999999997Q357.354 31.791999999999998 356.64 32.506Q355.926 33.22 354.96 33.22H346.644Q346.266 33.22 346.266 33.598V40.822Q346.266 41.032 346.434 41.452Q347.568 44.013999999999996 347.568 46.954Q347.568 53.002 344.27099999999996 56.215Q340.974 59.428 333.33 60.52Q332.322 60.688 331.524 60.079Q330.726 59.47 330.516 58.462L330.348 57.328Q330.18 56.403999999999996 330.747 55.626999999999995Q331.314 54.85 332.28 54.724Q336.81600000000003 54.136 338.538 53.191Q340.26 52.246 340.848 50.44Q340.848 50.397999999999996 340.89 50.334999999999994Q340.932 50.272 340.932 50.23Q340.932 50.146 340.89 50.146H340.806Q338.664 51.406 335.934 51.406Q331.944 51.406 329.44500000000005 49.096000000000004Q326.946 46.786 326.946 43.09Q326.946 39.394 329.487 37.084Q332.028 34.774 336.186 34.774Q337.992 34.774 339.714 35.446Q339.756 35.446 339.756 35.467Q339.756 35.488 339.798 35.488Q339.84 35.488 339.84 35.403999999999996V33.598Q339.84 33.22 339.462 33.22ZM381.504 55.018Q381.924 53.926 381.924 53.086Q381.924 51.994 381.105 51.469Q380.286 50.944 378.01800000000003 50.944Q376.212 50.944 375.30899999999997 51.511Q374.406 52.078 374.406 52.96Q374.406 55.396 380.916 55.396Q380.958 55.396 380.958 55.396L381.04200000000003 55.354Q381.378 55.354 381.504 55.018ZM365.376 45.064 365.166 44.686Q364.746 43.804 365.03999999999996 42.817Q365.334 41.83 366.174 41.326L382.176 31.918L382.218 31.875999999999998H382.176H369.282Q368.316 31.875999999999998 367.623 31.162Q366.93 30.447999999999997 366.93 29.482V28.683999999999997Q366.93 27.717999999999996 367.623 27.003999999999998Q368.316 26.29 369.282 26.29H391.962Q392.928 26.29 393.642 27.003999999999998Q394.356 27.717999999999996 394.356 28.683999999999997V29.65Q394.356 32.086 392.298 33.135999999999996L381.84 38.68V38.721999999999994H381.882Q383.982 38.343999999999994 385.872 38.343999999999994Q391.584 38.343999999999994 394.71299999999997 40.94799999999999Q397.842 43.552 397.842 48.004Q397.842 54.01 393.432 57.328Q389.022 60.646 380.916 60.646Q368.19 60.646 368.19 52.96Q368.19 50.062 370.94100000000003 48.087999999999994Q373.692 46.114 378.396 46.114Q383.226 46.114 385.389 47.68899999999999Q387.552 49.263999999999996 387.552 52.414Q387.552 53.338 387.468 53.8Q387.468 53.884 387.552 53.947Q387.636 54.01 387.72 53.968Q390.828 52.204 390.828 48.466Q390.828 43.257999999999996 382.89 43.257999999999996Q378.9 43.257999999999996 375.666 43.92999999999999Q372.432 44.602 368.61 46.239999999999995Q367.686 46.617999999999995 366.741 46.282Q365.796 45.946 365.376 45.064Z" fill="#ffffff" stroke="#ffffff" stroke-width="6" stroke-linejoin="round"/>
<path d="M70.242 44.602 69.94800000000001 43.006Q69.78 42.04 70.368 41.263000000000005Q70.956 40.486000000000004 71.922 40.275999999999996Q79.524 38.89 86.643 35.593Q93.762 32.296 99.138 27.676Q99.894 27.046 100.86 27.088Q101.826 27.13 102.456 27.886L103.506 29.061999999999998Q104.178 29.817999999999998 104.094 30.805Q104.01 31.791999999999998 103.254 32.464Q98.928 36.202 93.426 39.226Q93.09 39.436 93.09 39.772V57.832Q93.09 58.798 92.376 59.491Q91.662 60.184 90.696 60.184H88.134Q87.168 60.184 86.475 59.491Q85.782 58.798 85.782 57.832V43.216Q85.782 43.09 85.67699999999999 43.006Q85.572 42.922 85.446 42.964Q79.272 45.4 73.014 46.534Q72.048 46.702 71.229 46.135Q70.41 45.568 70.242 44.602ZM115.434 33.178Q114.552 32.757999999999996 114.25800000000001 31.833999999999996Q113.964 30.909999999999997 114.426 30.069999999999997L115.392 28.18Q115.854 27.298 116.799 26.982999999999997Q117.744 26.668 118.668 27.087999999999997Q122.994 29.145999999999997 127.53 31.497999999999998Q128.412 31.918 128.685 32.884Q128.958 33.849999999999994 128.496 34.69L127.404 36.58Q126.94200000000001 37.42 125.997 37.714Q125.05199999999999 38.007999999999996 124.17 37.546Q119.802 35.278 115.434 33.178ZM145.25400000000002 31.119999999999997Q146.22 31.33 146.76600000000002 32.149Q147.312 32.968 147.102 33.934Q144.624 44.98 137.37900000000002 51.111999999999995Q130.13400000000001 57.244 117.618 58.798Q116.61 58.924 115.812 58.315Q115.014 57.706 114.846 56.698L114.552 54.766Q114.384 53.842 114.97200000000001 53.065Q115.56 52.288 116.526 52.162Q126.774 50.734 132.507 46.072Q138.24 41.41 140.59199999999998 32.506Q140.844 31.54 141.663 31.015Q142.482 30.49 143.448 30.7ZM155.796 57.664 155.04 56.278Q154.578 55.438 154.893 54.493Q155.208 53.548 156.048 53.086Q170.244 45.61 177.132 33.43Q177.174 33.346000000000004 177.111 33.241Q177.048 33.135999999999996 176.922 33.135999999999996H160.038Q159.072 33.135999999999996 158.358 32.422Q157.644 31.708 157.644 30.741999999999997V29.229999999999997Q157.644 28.264 158.358 27.549999999999997Q159.072 26.836 160.038 26.836H182.55Q183.51600000000002 26.836 184.23000000000002 27.549999999999997Q184.94400000000002 28.264 184.94400000000002 29.229999999999997V30.741999999999997Q184.94400000000002 33.178 183.894 35.236Q181.248 40.108000000000004 177.51 44.434Q177.258 44.686 177.51 44.938Q182.13 49.012 186.96 53.59Q187.674 54.262 187.674 55.248999999999995Q187.674 56.236 186.96 56.908L185.65800000000002 58.168Q184.94400000000002 58.882 183.957 58.882Q182.97 58.882 182.256 58.21Q177.804 53.884 173.016 49.6Q172.722 49.39 172.47 49.6Q166.464 55.06 159.114 58.714Q158.19 59.176 157.224 58.861000000000004Q156.258 58.546 155.796 57.664ZM203.34 60.394Q202.374 60.394 201.66 59.68Q200.946 58.966 200.946 58.0V27.759999999999998Q200.946 26.793999999999997 201.66 26.08Q202.374 25.366 203.34 25.366H205.734Q206.7 25.366 207.393 26.08Q208.086 26.793999999999997 208.086 27.759999999999998V36.58Q208.086 36.958 208.464 37.042Q218.334 39.477999999999994 228.414 43.006Q229.338 43.3 229.8 44.203Q230.262 45.106 229.926 46.072L229.25400000000002 47.962Q228.918 48.885999999999996 228.078 49.306Q227.238 49.726 226.314 49.432Q217.704 46.366 208.422 43.972Q208.086 43.888 208.086 44.266V58.0Q208.086 58.966 207.393 59.68Q206.7 60.394 205.734 60.394ZM239.88 46.282Q238.914 46.282 238.2 45.568Q237.486 44.854 237.486 43.888V41.872Q237.486 40.906 238.2 40.19199999999999Q238.914 39.477999999999994 239.88 39.477999999999994H270.12Q271.086 39.477999999999994 271.8 40.19199999999999Q272.514 40.906 272.514 41.872V43.888Q272.514 44.854 271.8 45.568Q271.086 46.282 270.12 46.282ZM298.806 59.68Q297.84 59.722 297.147 59.007999999999996Q296.454 58.294 296.454 57.328V28.389999999999997Q296.454 27.424 297.147 26.709999999999997Q297.84 25.995999999999995 298.806 25.995999999999995H301.074Q302.04 25.995999999999995 302.733 26.709999999999997Q303.426 27.424 303.426 28.389999999999997V52.204Q303.426 52.498 303.804 52.414Q306.618 51.406 308.172 48.949Q309.726 46.492 310.44 41.914Q310.608 40.948 311.36400000000003 40.339Q312.12 39.730000000000004 313.086 39.855999999999995L314.808 40.108000000000004Q315.774 40.233999999999995 316.404 41.032Q317.034 41.83 316.908 42.796Q315.69 51.238 311.259 55.312Q306.828 59.386 298.806 59.68ZM280.284 58.252 279.15 56.488Q278.646 55.69 278.877 54.766Q279.108 53.842 279.948 53.338Q281.712 52.246 282.678 51.07Q283.644 49.894 284.23199999999997 47.689Q284.82 45.484 284.988 42.628Q285.156 39.772 285.156 34.69V28.389999999999997Q285.156 27.424 285.87 26.709999999999997Q286.584 25.995999999999995 287.55 25.995999999999995H289.65Q290.616 25.995999999999995 291.33 26.709999999999997Q292.044 27.424 292.044 28.389999999999997V34.69Q292.044 42.544 291.267 47.143Q290.49 51.742 288.747 54.45099999999999Q287.004 57.16 283.728 59.092Q282.846 59.596000000000004 281.85900000000004 59.344Q280.872 59.092 280.284 58.252ZM339.44100000000003 45.358Q340.428 44.476 340.428 43.09Q340.428 41.704 339.44100000000003 40.822Q338.454 39.94 336.858 39.94Q335.262 39.94 334.275 40.822Q333.288 41.704 333.288 43.09Q333.288 44.476 334.275 45.358Q335.262 46.239999999999995 336.858 46.239999999999995Q338.454 46.239999999999995 339.44100000000003 45.358ZM323.04 33.22Q322.074 33.22 321.36 32.506Q320.646 31.791999999999998 320.646 30.825999999999997V30.195999999999998Q320.646 29.229999999999997 321.36 28.537Q322.074 27.843999999999998 323.04 27.843999999999998H339.462Q339.84 27.843999999999998 339.84 27.465999999999998V25.995999999999995Q339.84 25.03 340.554 24.337Q341.26800000000003 23.644 342.234 23.644H343.914Q344.88 23.644 345.573 24.357999999999997Q346.266 25.071999999999996 346.266 26.037999999999997V27.465999999999998Q346.266 27.843999999999998 346.644 27.843999999999998H354.96Q355.926 27.843999999999998 356.64 28.537Q357.354 29.229999999999997 357.354 30.195999999999998V30.825999999999997Q357.354 31.791999999999998 356.64 32.506Q355.926 33.22 354.96 33.22H346.644Q346.266 33.22 346.266 33.598V40.822Q346.266 41.032 346.434 41.452Q347.568 44.013999999999996 347.568 46.954Q347.568 53.002 344.27099999999996 56.215Q340.974 59.428 333.33 60.52Q332.322 60.688 331.524 60.079Q330.726 59.47 330.516 58.462L330.348 57.328Q330.18 56.403999999999996 330.747 55.626999999999995Q331.314 54.85 332.28 54.724Q336.81600000000003 54.136 338.538 53.191Q340.26 52.246 340.848 50.44Q340.848 50.397999999999996 340.89 50.334999999999994Q340.932 50.272 340.932 50.23Q340.932 50.146 340.89 50.146H340.806Q338.664 51.406 335.934 51.406Q331.944 51.406 329.44500000000005 49.096000000000004Q326.946 46.786 326.946 43.09Q326.946 39.394 329.487 37.084Q332.028 34.774 336.186 34.774Q337.992 34.774 339.714 35.446Q339.756 35.446 339.756 35.467Q339.756 35.488 339.798 35.488Q339.84 35.488 339.84 35.403999999999996V33.598Q339.84 33.22 339.462 33.22ZM381.504 55.018Q381.924 53.926 381.924 53.086Q381.924 51.994 381.105 51.469Q380.286 50.944 378.01800000000003 50.944Q376.212 50.944 375.30899999999997 51.511Q374.406 52.078 374.406 52.96Q374.406 55.396 380.916 55.396Q380.958 55.396 380.958 55.396L381.04200000000003 55.354Q381.378 55.354 381.504 55.018ZM365.376 45.064 365.166 44.686Q364.746 43.804 365.03999999999996 42.817Q365.334 41.83 366.174 41.326L382.176 31.918L382.218 31.875999999999998H382.176H369.282Q368.316 31.875999999999998 367.623 31.162Q366.93 30.447999999999997 366.93 29.482V28.683999999999997Q366.93 27.717999999999996 367.623 27.003999999999998Q368.316 26.29 369.282 26.29H391.962Q392.928 26.29 393.642 27.003999999999998Q394.356 27.717999999999996 394.356 28.683999999999997V29.65Q394.356 32.086 392.298 33.135999999999996L381.84 38.68V38.721999999999994H381.882Q383.982 38.343999999999994 385.872 38.343999999999994Q391.584 38.343999999999994 394.71299999999997 40.94799999999999Q397.842 43.552 397.842 48.004Q397.842 54.01 393.432 57.328Q389.022 60.646 380.916 60.646Q368.19 60.646 368.19 52.96Q368.19 50.062 370.94100000000003 48.087999999999994Q373.692 46.114 378.396 46.114Q383.226 46.114 385.389 47.68899999999999Q387.552 49.263999999999996 387.552 52.414Q387.552 53.338 387.468 53.8Q387.468 53.884 387.552 53.947Q387.636 54.01 387.72 53.968Q390.828 52.204 390.828 48.466Q390.828 43.257999999999996 382.89 43.257999999999996Q378.9 43.257999999999996 375.666 43.92999999999999Q372.432 44.602 368.61 46.239999999999995Q367.686 46.617999999999995 366.741 46.282Q365.796 45.946 365.376 45.064Z" fill="url(#g)"/>
</svg>
